<svg width="141" height="44" viewBox="0 0 141 44" fill="none" xmlns="http://www.w3.org/2000/svg">
<path d="M60.18 30.2C58.8333 30.2 57.8 29.7667 57.08 28.9C56.36 28.0333 55.9733 26.88 55.92 25.44L55.9 24.78L55.92 24.14C55.96 22.74 56.34 21.6 57.06 20.72C57.7933 19.84 58.8333 19.4 60.18 19.4C61.4733 19.4 62.5 19.84 63.26 20.72V16.28C63.26 16.1333 63.3067 16.02 63.4 15.94C63.4933 15.8467 63.6067 15.8 63.74 15.8H65.44C65.5867 15.8 65.7 15.8467 65.78 15.94C65.8733 16.02 65.92 16.1333 65.92 16.28V29.52C65.92 29.6533 65.8733 29.7667 65.78 29.86C65.7 29.9533 65.5867 30 65.44 30H63.86C63.7267 30 63.6133 29.9533 63.52 29.86C63.4267 29.7667 63.38 29.6533 63.38 29.52V28.78C62.62 29.7267 61.5533 30.2 60.18 30.2ZM60.92 28.06C61.6933 28.06 62.2667 27.8133 62.64 27.32C63.0133 26.8267 63.22 26.22 63.26 25.5C63.2733 25.34 63.28 25.08 63.28 24.72C63.28 24.3733 63.2733 24.12 63.26 23.96C63.2333 23.2933 63.02 22.7267 62.62 22.26C62.2333 21.78 61.6667 21.54 60.92 21.54C59.48 21.54 58.7133 22.4267 58.62 24.2L58.6 24.8L58.62 25.4C58.7133 27.1733 59.48 28.06 60.92 28.06ZM73.2856 30C72.0723 30 71.159 29.6867 70.5456 29.06C69.9456 28.42 69.6456 27.4867 69.6456 26.26V21.72H68.0656C67.9323 21.72 67.819 21.6733 67.7256 21.58C67.6323 21.4733 67.5856 21.3533 67.5856 21.22V20.08C67.5856 19.9467 67.6323 19.8333 67.7256 19.74C67.819 19.6467 67.9323 19.6 68.0656 19.6H69.6456V16.28C69.6456 16.1333 69.6923 16.02 69.7856 15.94C69.879 15.8467 69.9923 15.8 70.1256 15.8H71.7456C71.8923 15.8 72.0056 15.8467 72.0856 15.94C72.179 16.02 72.2256 16.1333 72.2256 16.28V19.6H74.7256C74.8723 19.6 74.9856 19.6467 75.0656 19.74C75.159 19.82 75.2056 19.9333 75.2056 20.08V21.22C75.2056 21.3667 75.159 21.4867 75.0656 21.58C74.9723 21.6733 74.859 21.72 74.7256 21.72H72.2256V26.06C72.2256 26.6333 72.3256 27.0667 72.5256 27.36C72.7256 27.6533 73.059 27.8 73.5256 27.8H74.9056C75.039 27.8 75.1523 27.8467 75.2456 27.94C75.339 28.0333 75.3856 28.1467 75.3856 28.28V29.52C75.3856 29.6533 75.339 29.7667 75.2456 29.86C75.1656 29.9533 75.0523 30 74.9056 30H73.2856ZM77.6398 30C77.5065 30 77.3932 29.9533 77.2998 29.86C77.2065 29.7667 77.1598 29.6533 77.1598 29.52V20.08C77.1598 19.9467 77.2065 19.8333 77.2998 19.74C77.3932 19.6467 77.5065 19.6 77.6398 19.6H79.1998C79.3332 19.6 79.4465 19.6467 79.5398 19.74C79.6332 19.8333 79.6798 19.9467 79.6798 20.08V20.76C80.3732 19.8533 81.3398 19.4 82.5798 19.4C84.0598 19.4 85.0932 19.9933 85.6798 21.18C85.9998 20.6467 86.4532 20.22 87.0398 19.9C87.6265 19.5667 88.2598 19.4 88.9398 19.4C90.0332 19.4 90.9265 19.7733 91.6198 20.52C92.3132 21.2667 92.6598 22.3533 92.6598 23.78V29.52C92.6598 29.6533 92.6132 29.7667 92.5198 29.86C92.4398 29.9533 92.3265 30 92.1798 30H90.5398C90.4065 30 90.2932 29.9533 90.1998 29.86C90.1065 29.7667 90.0598 29.6533 90.0598 29.52V23.94C90.0598 23.1 89.8798 22.4933 89.5198 22.12C89.1732 21.7333 88.7065 21.54 88.1198 21.54C87.5998 21.54 87.1532 21.7333 86.7798 22.12C86.4198 22.5067 86.2398 23.1133 86.2398 23.94V29.52C86.2398 29.6533 86.1932 29.7667 86.0998 29.86C86.0065 29.9533 85.8932 30 85.7598 30H84.1198C83.9865 30 83.8732 29.9533 83.7798 29.86C83.6865 29.7667 83.6398 29.6533 83.6398 29.52V23.94C83.6398 23.1 83.4532 22.4933 83.0798 22.12C82.7198 21.7333 82.2598 21.54 81.6998 21.54C81.1665 21.54 80.7132 21.7333 80.3398 22.12C79.9798 22.5067 79.7998 23.1133 79.7998 23.94V29.52C79.7998 29.6533 79.7532 29.7667 79.6598 29.86C79.5665 29.9533 79.4532 30 79.3198 30H77.6398ZM99.8067 30.2C98.2467 30.2 97.0401 29.8 96.1867 29C95.3334 28.1867 94.8734 27.08 94.8067 25.68L94.7867 24.8L94.8067 23.92C94.8734 22.5333 95.3401 21.4333 96.2067 20.62C97.0734 19.8067 98.2734 19.4 99.8067 19.4C101.34 19.4 102.54 19.8067 103.407 20.62C104.273 21.4333 104.74 22.5333 104.807 23.92C104.82 24.08 104.827 24.3733 104.827 24.8C104.827 25.2267 104.82 25.52 104.807 25.68C104.74 27.08 104.28 28.1867 103.427 29C102.573 29.8 101.367 30.2 99.8067 30.2ZM99.8067 28.22C100.513 28.22 101.06 28 101.447 27.56C101.833 27.1067 102.047 26.4467 102.087 25.58C102.1 25.4467 102.107 25.1867 102.107 24.8C102.107 24.4133 102.1 24.1533 102.087 24.02C102.047 23.1533 101.833 22.5 101.447 22.06C101.06 21.6067 100.513 21.38 99.8067 21.38C99.1001 21.38 98.5534 21.6067 98.1667 22.06C97.7801 22.5 97.5667 23.1533 97.5267 24.02L97.5067 24.8L97.5267 25.58C97.5667 26.4467 97.7801 27.1067 98.1667 27.56C98.5534 28 99.1001 28.22 99.8067 28.22ZM107.523 30C107.389 30 107.276 29.9533 107.183 29.86C107.089 29.7667 107.043 29.6533 107.043 29.52V20.08C107.043 19.9467 107.089 19.8333 107.183 19.74C107.276 19.6467 107.389 19.6 107.523 19.6H109.163C109.296 19.6 109.409 19.6467 109.503 19.74C109.596 19.8333 109.643 19.9467 109.643 20.08V20.9C110.429 19.9 111.543 19.4 112.983 19.4C114.209 19.4 115.183 19.8067 115.903 20.62C116.623 21.42 116.983 22.5133 116.983 23.9V29.52C116.983 29.6533 116.936 29.7667 116.843 29.86C116.763 29.9533 116.649 30 116.503 30H114.743C114.609 30 114.496 29.9533 114.403 29.86C114.309 29.7667 114.263 29.6533 114.263 29.52V24.02C114.263 23.2333 114.069 22.6267 113.683 22.2C113.309 21.76 112.763 21.54 112.043 21.54C111.336 21.54 110.776 21.76 110.363 22.2C109.963 22.64 109.763 23.2467 109.763 24.02V29.52C109.763 29.6533 109.716 29.7667 109.623 29.86C109.543 29.9533 109.429 30 109.283 30H107.523ZM124.003 30.2C122.523 30.2 121.343 29.7733 120.463 28.92C119.596 28.0533 119.136 26.84 119.083 25.28L119.063 24.78L119.083 24.28C119.15 22.76 119.616 21.5667 120.483 20.7C121.363 19.8333 122.536 19.4 124.003 19.4C125.576 19.4 126.79 19.88 127.643 20.84C128.51 21.8 128.943 23.08 128.943 24.68V25.1C128.943 25.2333 128.896 25.3467 128.803 25.44C128.71 25.5333 128.59 25.58 128.443 25.58H121.803V25.74C121.83 26.4733 122.03 27.0933 122.403 27.6C122.79 28.0933 123.316 28.34 123.983 28.34C124.77 28.34 125.403 28.0333 125.883 27.42C126.003 27.2733 126.096 27.18 126.163 27.14C126.243 27.1 126.356 27.08 126.503 27.08H128.223C128.343 27.08 128.443 27.12 128.523 27.2C128.616 27.2667 128.663 27.3533 128.663 27.46C128.663 27.78 128.47 28.16 128.083 28.6C127.71 29.0267 127.17 29.4 126.463 29.72C125.756 30.04 124.936 30.2 124.003 30.2ZM126.223 23.9V23.84C126.223 23.0533 126.023 22.42 125.623 21.94C125.236 21.46 124.696 21.22 124.003 21.22C123.31 21.22 122.77 21.46 122.383 21.94C121.996 22.42 121.803 23.0533 121.803 23.84V23.9H126.223ZM132.516 33.8C132.41 33.8 132.316 33.76 132.236 33.68C132.156 33.6 132.116 33.5067 132.116 33.4C132.116 33.28 132.143 33.1733 132.196 33.08L133.756 29.38L129.916 20.32C129.863 20.2 129.836 20.1067 129.836 20.04C129.85 19.92 129.896 19.82 129.976 19.74C130.056 19.6467 130.156 19.6 130.276 19.6H131.896C132.15 19.6 132.33 19.7267 132.436 19.98L135.096 26.52L137.836 19.98C137.943 19.7267 138.123 19.6 138.376 19.6H139.976C140.083 19.6 140.176 19.64 140.256 19.72C140.35 19.8 140.396 19.8933 140.396 20C140.396 20.0933 140.37 20.2 140.316 20.32L134.656 33.42C134.536 33.6733 134.35 33.8 134.096 33.8H132.516Z" fill="white"/>
<path d="M35.6453 26.0491C35.228 25.4682 35.076 24.7474 35.2328 24.0535C35.3243 23.6479 35.3704 23.2337 35.3702 22.8182C35.3702 20.5086 33.9659 18.5124 31.9264 17.559C31.4684 17.3449 31.0812 17.0073 30.8323 16.5735C28.9457 13.2851 26.5596 10.7846 23.4262 9.60113C24.8636 6.92818 26.9749 4.52986 28.7285 2.79891C29.7779 1.76283 29.0346 0 27.546 0H11.3089C9.82515 0 9.08341 1.75028 10.1199 2.79238C11.7376 4.41876 13.612 6.68442 14.862 9.39456C11.1499 10.5626 9.34971 13.6905 6.5958 19.6787C6.31251 20.2947 5.78297 20.7668 5.13323 20.9906C2.13945 22.022 0 24.7525 0 27.9594C0 29.5482 0.525342 31.02 1.41933 32.2263C1.70506 32.6119 1.85529 33.0757 1.87227 33.5523C2.08115 39.4273 6.94282 44 19.1326 44C30.6109 44 34.935 40.1811 35.6803 34.7923C35.7249 34.4697 35.8256 34.1563 35.9929 33.8752C36.6338 32.7984 37 31.5538 37 30.2277C36.9999 28.6774 36.5 27.2385 35.6453 26.0491Z" fill="#5636D3"/>
<path d="M19.1019 11.4875C17.8004 11.4875 16.5786 11.3854 15.6615 11.1999C15.1265 11.0917 13.4987 10.7623 13.4987 9.57315C13.4987 9.35244 13.588 9.14077 13.747 8.98471C13.906 8.82864 14.1216 8.74097 14.3465 8.74097C14.7233 8.74097 15.0426 8.98224 15.153 9.31589C15.554 9.53628 16.968 9.82319 19.1018 9.82319C21.2358 9.82319 22.6498 9.53628 23.0507 9.31589C23.1611 8.98224 23.4804 8.74097 23.8572 8.74097C24.0821 8.74097 24.2977 8.82864 24.4567 8.98471C24.6157 9.14077 24.7051 9.35244 24.7051 9.57315C24.7051 10.7623 23.0772 11.0916 22.5423 11.1999C21.6253 11.3853 20.4035 11.4875 19.1019 11.4875Z" fill="white"/>
<path d="M21.1988 19.987C22.2936 20.1954 23.1827 20.6363 23.9416 21.2775C24.114 21.4233 24.1311 21.6804 23.9837 21.8505L22.9975 22.9886C22.8544 23.1537 22.6063 23.1779 22.4287 23.0489C21.6093 22.4534 20.7613 22.1697 19.7847 22.1697C18.6852 22.1697 17.9929 22.6294 17.9929 23.4488C17.9929 24.2881 18.502 24.6279 20.5992 25.2675C23.1648 26.0669 24.6309 27.1261 24.6309 29.5644C24.6309 31.5126 23.3662 33.0045 21.1745 33.5516C20.9914 33.5973 20.8639 33.7607 20.8639 33.9462V36.3703C20.8639 36.424 20.8532 36.4772 20.8322 36.5268C20.8113 36.5764 20.7806 36.6215 20.7419 36.6594C20.7032 36.6974 20.6573 36.7275 20.6068 36.7481C20.5562 36.7686 20.502 36.7792 20.4473 36.7792H18.939C18.8285 36.7792 18.7225 36.7361 18.6444 36.6594C18.5663 36.5827 18.5224 36.4787 18.5224 36.3703V34.1094C18.5224 33.9043 18.3672 33.7301 18.1599 33.7047C16.5601 33.5095 15.3282 32.911 14.4165 32.1441C14.2395 31.9952 14.2267 31.7302 14.3837 31.5609L15.4843 30.374C15.6321 30.2146 15.8795 30.197 16.0518 30.3306C16.9378 31.0168 17.9453 31.4031 19.1332 31.4031C20.4567 31.4031 21.2509 30.8036 21.2509 29.8042C21.2509 28.8449 20.762 28.4052 18.8074 27.8057C15.7531 26.8863 14.6739 25.6472 14.6739 23.6886C14.6739 21.7506 16.091 20.3905 18.1903 19.9693C18.2841 19.9504 18.3683 19.9004 18.4288 19.8276C18.4893 19.7548 18.5223 19.6638 18.5224 19.5699V17.3822C18.5224 17.2738 18.5663 17.1698 18.6444 17.0931C18.7225 17.0164 18.8285 16.9734 18.939 16.9733H20.4473C20.5578 16.9734 20.6638 17.0164 20.7419 17.0931C20.82 17.1698 20.8639 17.2738 20.8639 17.3822V19.5869C20.8638 19.6814 20.8971 19.7729 20.9582 19.8459C21.0193 19.9189 21.1044 19.9688 21.1988 19.987Z" fill="white"/>
</svg>
